<?xml version="1.0" encoding="UTF-8" standalone="no"?> <svg width="32" height="32" viewBox="0 0 32 32" fill="none" xmlns="http://www.w3.org/2000/svg">
<path d="M29 2H3C2.73478 2 2.48043 2.10536 2.29289 2.29289C2.10536 2.48043 2 2.73478 2 3V29C2 29.2652 2.10536 29.5196 2.29289 29.7071C2.48043 29.8946 2.73478 30 3 30H29C29.2652 30 29.5196 29.8946 29.7071 29.7071C29.8946 29.5196 30 29.2652 30 29V3C30 2.73478 29.8946 2.48043 29.7071 2.29289C29.5196 2.10536 29.2652 2 29 2V2ZM28 28H4V4H28V28Z" fill="black"/>
<path d="M6.53 16.8801C6.68637 16.9604 6.86115 16.9981 7.03671 16.9893C7.21227 16.9805 7.38242 16.9256 7.53 16.8301L13.53 12.8301C13.6661 12.7386 13.7777 12.6151 13.8548 12.4703C13.9319 12.3256 13.9722 12.1641 13.9722 12.0001C13.9722 11.8361 13.9319 11.6746 13.8548 11.5299C13.7777 11.3851 13.6661 11.2616 13.53 11.1701L7.53 7.17011C7.37798 7.08234 7.20554 7.03613 7.03 7.03613C6.85446 7.03613 6.68202 7.08234 6.53 7.17011C6.37755 7.25097 6.24862 7.3699 6.15575 7.51534C6.06287 7.66079 6.00922 7.82779 6 8.00011V16.0001C6.00048 16.181 6.05003 16.3584 6.14336 16.5134C6.2367 16.6683 6.37032 16.7951 6.53 16.8801V16.8801ZM8 9.87011L11.2 12.0001L8 14.1301V9.87011Z" fill="black"/>
<path d="M17 13H25C25.2652 13 25.5196 12.8946 25.7071 12.7071C25.8946 12.5196 26 12.2652 26 12C26 11.7348 25.8946 11.4804 25.7071 11.2929C25.5196 11.1054 25.2652 11 25 11H17C16.7348 11 16.4804 11.1054 16.2929 11.2929C16.1054 11.4804 16 11.7348 16 12C16 12.2652 16.1054 12.5196 16.2929 12.7071C16.4804 12.8946 16.7348 13 17 13Z" fill="black"/>
<path d="M17 9H25C25.2652 9 25.5196 8.89464 25.7071 8.70711C25.8946 8.51957 26 8.26522 26 8C26 7.73478 25.8946 7.48043 25.7071 7.29289C25.5196 7.10536 25.2652 7 25 7H17C16.7348 7 16.4804 7.10536 16.2929 7.29289C16.1054 7.48043 16 7.73478 16 8C16 8.26522 16.1054 8.51957 16.2929 8.70711C16.4804 8.89464 16.7348 9 17 9Z" fill="black"/>
<path d="M17 17H25C25.2652 17 25.5196 16.8946 25.7071 16.7071C25.8946 16.5196 26 16.2652 26 16C26 15.7348 25.8946 15.4804 25.7071 15.2929C25.5196 15.1054 25.2652 15 25 15H17C16.7348 15 16.4804 15.1054 16.2929 15.2929C16.1054 15.4804 16 15.7348 16 16C16 16.2652 16.1054 16.5196 16.2929 16.7071C16.4804 16.8946 16.7348 17 17 17Z" fill="black"/>
<path d="M7 21H25C25.2652 21 25.5196 20.8946 25.7071 20.7071C25.8946 20.5196 26 20.2652 26 20C26 19.7348 25.8946 19.4804 25.7071 19.2929C25.5196 19.1054 25.2652 19 25 19H7C6.73478 19 6.48043 19.1054 6.29289 19.2929C6.10536 19.4804 6 19.7348 6 20C6 20.2652 6.10536 20.5196 6.29289 20.7071C6.48043 20.8946 6.73478 21 7 21Z" fill="black"/>
<path d="M7 25H25C25.2652 25 25.5196 24.8946 25.7071 24.7071C25.8946 24.5196 26 24.2652 26 24C26 23.7348 25.8946 23.4804 25.7071 23.2929C25.5196 23.1054 25.2652 23 25 23H7C6.73478 23 6.48043 23.1054 6.29289 23.2929C6.10536 23.4804 6 23.7348 6 24C6 24.2652 6.10536 24.5196 6.29289 24.7071C6.48043 24.8946 6.73478 25 7 25Z" fill="black"/>
</svg>
